<?xml version="1.0" encoding="UTF-8"?>
<svg width="27px" height="27px" viewBox="0 0 27 27" version="1.1" xmlns="http://www.w3.org/2000/svg" xmlns:xlink="http://www.w3.org/1999/xlink">
    <!-- Generator: Sketch 63.1 (92452) - https://sketch.com -->
    <title>Fill 1</title>
    <desc>Created with Sketch.</desc>
    <g id="Symbols" stroke="none" stroke-width="1" fill="none" fill-rule="evenodd" opacity="0.8">
        <g id="Nav/Footer_Mobile" transform="translate(-71.000000, -425.000000)" fill="#000000">
            <g id="Group-Copy-2" transform="translate(15.000000, 420.000000)">
                <g id="icon/Social/Facebook" transform="translate(46.000000, 0.000000)">
                    <path d="M36.8959893,18.781328 C36.8959893,11.5382952 31.0243608,5.66666667 23.781328,5.66666667 C16.5382952,5.66666667 10.6666667,11.5382952 10.6666667,18.781328 C10.6666667,25.3272345 15.4625088,30.7528109 21.7321622,31.7366667 L21.7321622,22.5722848 L18.4022677,22.5722848 L18.4022677,18.781328 L21.7321622,18.781328 L21.7321622,15.8920042 C21.7321622,12.6051422 23.6900889,10.7895812 26.6857644,10.7895812 C28.1206159,10.7895812 29.6214506,11.045727 29.6214506,11.045727 L29.6214506,14.2731632 L27.9677226,14.2731632 C26.3385589,14.2731632 25.8304938,15.2840935 25.8304938,16.3212276 L25.8304938,18.781328 L29.4677632,18.781328 L28.8863124,22.5722848 L25.8304938,22.5722848 L25.8304938,31.7366667 C32.1001472,30.7528109 36.8959893,25.3272345 36.8959893,18.781328" id="Fill-1"></path>
                </g>
            </g>
        </g>
    </g>
</svg>