<?xml version="1.0" encoding="UTF-8"?>
<svg width="27px" height="27px" viewBox="0 0 27 27" version="1.1" xmlns="http://www.w3.org/2000/svg" xmlns:xlink="http://www.w3.org/1999/xlink">
    <!-- Generator: Sketch 63.1 (92452) - https://sketch.com -->
    <title>Combined Shape Copy</title>
    <desc>Created with Sketch.</desc>
    <g id="Symbols" stroke="none" stroke-width="1" fill="none" fill-rule="evenodd" opacity="0.8">
        <g id="Nav/Footer_Mobile" transform="translate(-184.000000, -426.000000)" fill="#000000">
            <g id="Group-Copy-2" transform="translate(15.000000, 420.000000)">
                <g id="icon/Social/Instagram" transform="translate(169.000000, 6.000000)">
                    <path d="M15.0654759,0.542646059 C17.2851523,0.547435199 17.7854954,0.56657234 18.9516011,0.619778353 C20.3390602,0.683061059 21.286645,0.903438038 22.1157881,1.22569862 C22.9729764,1.55877367 23.6999255,2.00449503 24.4246496,2.7291674 C25.149322,3.4538915 25.5950434,4.1808406 25.9281702,5.03802891 C26.250379,5.86717207 26.470756,6.81475686 26.5340387,8.20221597 C26.5933839,9.50287229 26.6103445,9.97526488 26.612286,12.9290685 L26.612286,14.2243072 C26.6103445,17.1780685 26.5933839,17.650461 26.5340387,18.9511174 C26.470756,20.3385765 26.250379,21.2861613 25.9281702,22.1153044 C25.5950434,22.9724927 25.149322,23.6994418 24.4246496,24.4241659 C23.6999255,25.1488383 22.9729764,25.5945597 22.1157881,25.9276865 C21.286645,26.2498953 20.3390602,26.4702723 18.9516011,26.533555 C17.6509448,26.5929001 17.1785522,26.6098608 14.2247909,26.6118023 L12.9295522,26.6118023 C9.97574859,26.6098608 9.503356,26.5929001 8.20269968,26.533555 C6.81524057,26.4702723 5.86765578,26.2498953 5.03851262,25.9276865 C4.18132431,25.5945597 3.45437521,25.1488383 2.72965111,24.4241659 C2.00497874,23.6994418 1.55925738,22.9724927 1.22618233,22.1153044 C0.903921747,21.2861613 0.683544768,20.3385765 0.620262062,18.9511174 C0.567056049,17.7850117 0.547918908,17.2846686 0.543129768,15.0649922 L0.543129768,12.0883717 C0.547918908,9.86866478 0.567056049,9.36832164 0.620262062,8.20221597 C0.683544768,6.81475686 0.903921747,5.86717207 1.22618233,5.03802891 C1.55925738,4.1808406 2.00497874,3.4538915 2.72965111,2.7291674 C3.45437521,2.00449503 4.18132431,1.55877367 5.03851262,1.22569862 C5.86765578,0.903438038 6.81524057,0.683061059 8.20269968,0.619778353 C9.36880535,0.56657234 9.86914849,0.547435199 12.0888554,0.542646059 Z M14.5051062,2.89044533 L12.6492327,2.89044533 C10.0077652,2.8930756 9.55126244,2.90940619 8.30975766,2.96605066 C7.03882567,3.02400375 6.3486147,3.23636044 5.8892847,3.41487666 C5.28082899,3.65134597 4.84659475,3.93381554 4.39047287,4.38998916 C3.93429925,4.84611104 3.65182968,5.28034528 3.41536036,5.88880099 C3.23684414,6.34813099 3.02448746,7.03834196 2.96653437,8.30927396 C2.90988989,9.55077873 2.8935593,10.0072814 2.89092903,12.648749 L2.89092903,14.5046225 C2.8935593,17.1460519 2.90988989,17.6025546 2.96653437,18.8440594 C3.02448746,20.1149914 3.23684414,20.8052023 3.41536036,21.2645323 C3.65182968,21.8729881 3.934351,22.3072223 4.39047287,22.7633442 C4.84659475,23.2195178 5.28082899,23.5019874 5.8892847,23.7384567 C6.3486147,23.9169729 7.03882567,24.1293296 8.30975766,24.1872827 C9.55112223,24.2439271 10.007527,24.2602577 12.6491675,24.262888 L14.5051727,24.262888 C17.1467828,24.2602577 17.6032253,24.2439271 18.8445431,24.1872827 C20.1154751,24.1293296 20.8056861,23.9169729 21.265016,23.7384567 C21.8734718,23.5019874 22.307706,23.2195178 22.7638279,22.7633442 C23.2200015,22.3072223 23.5024711,21.8729881 23.7389404,21.2645323 C23.9174566,20.8052023 24.1298133,20.1149914 24.1877664,18.8440594 C24.2444109,17.6025546 24.2607414,17.1460519 24.2633717,14.5046225 L24.2633717,12.648749 C24.2607414,10.0072814 24.2444109,9.55077873 24.1877664,8.30927396 C24.1298133,7.03834196 23.9174566,6.34813099 23.7389404,5.88880099 C23.5024711,5.28034528 23.2200015,4.84611104 22.7638279,4.38998916 C22.307706,3.93381554 21.8734718,3.65134597 21.265016,3.41487666 C20.8056861,3.23636044 20.1154751,3.02400375 18.8445431,2.96605066 C17.6030383,2.90940619 17.1465356,2.8930756 14.5051062,2.89044533 Z M13.5812903,6.76936402 C17.3385857,6.76936402 20.384453,9.81523133 20.384453,13.5725793 C20.384453,17.3298747 17.3385857,20.375742 13.5812903,20.375742 C9.82394231,20.375742 6.778075,17.3298747 6.778075,13.5725793 C6.778075,9.81523133 9.82394231,6.76936402 13.5812903,6.76936402 Z M13.5812903,9.15644512 C11.1423036,9.15644512 9.1651561,11.1335926 9.1651561,13.5725793 C9.1651561,16.0115135 11.1423036,17.9886609 13.5812903,17.9886609 C16.0202245,17.9886609 17.9973719,16.0115135 17.9973719,13.5725793 C17.9973719,11.1335926 16.0202245,9.15644512 13.5812903,9.15644512 Z M20.3844249,5.06856677 C21.323758,5.06856677 22.0852503,5.830059 22.0852503,6.76939216 C22.0852503,7.70872531 21.323758,8.47016128 20.3844249,8.47016128 C19.445148,8.47016128 18.6836558,7.70872531 18.6836558,6.76939216 C18.6836558,5.830059 19.445148,5.06856677 20.3844249,5.06856677 Z" id="Combined-Shape-Copy"></path>
                </g>
            </g>
        </g>
    </g>
</svg>