<?xml version="1.0" encoding="UTF-8"?>
<svg width="28px" height="27px" viewBox="0 0 28 27" version="1.1" xmlns="http://www.w3.org/2000/svg" xmlns:xlink="http://www.w3.org/1999/xlink">
    <!-- Generator: Sketch 63.1 (92452) - https://sketch.com -->
    <title>Path_2520</title>
    <desc>Created with Sketch.</desc>
    <g id="Symbols" stroke="none" stroke-width="1" fill="none" fill-rule="evenodd" opacity="0.8">
        <g id="Nav/Footer_Mobile" transform="translate(-15.000000, -425.000000)" fill="#000000">
            <g id="Group-Copy-2" transform="translate(15.000000, 420.000000)">
                <g id="icon/Social/LinkedIn" transform="translate(0.000000, 5.000000)">
                    <g id="LI-Bug.svg.original" transform="translate(0.666667, 0.666667)">
                        <path d="M22.5126421,22.2167635 L18.6492797,22.2167635 L18.6492797,16.1664448 C18.6492797,14.7236889 18.623524,12.8664173 16.6399288,12.8664173 C14.6277609,12.8664173 14.3198993,14.4383572 14.3198993,16.0614073 L14.3198993,22.2163611 L10.4565369,22.2163611 L10.4565369,9.77445249 L14.1653648,9.77445249 L14.1653648,11.4747715 L14.2172787,11.4747715 C14.9735297,10.1817053 16.3796853,9.40940855 17.8766072,9.46497431 C21.792286,9.46497431 22.5142518,12.0406055 22.5142518,15.3913408 L22.5126421,22.2167635 Z M6.09737635,8.07373104 C4.85917746,8.07395325 3.85523877,7.07035295 3.85501648,5.83212698 C3.85479426,4.59390102 4.85837261,3.58994037 6.09657151,3.58971806 C7.3347704,3.58949583 8.33870911,4.59309611 8.33893143,5.83132207 C8.33903813,6.42593917 8.10293494,6.9962447 7.68256182,7.41677795 C7.26218871,7.8373112 6.69198044,8.07362428 6.09737635,8.07373104 M8.02905753,22.2167635 L4.16167083,22.2167635 L4.16167083,9.77445249 L8.02905753,9.77445249 L8.02905753,22.2167635 Z M24.4386892,0.00194422757 L2.22033124,0.00194422757 C1.17024576,-0.00990624621 0.309112013,0.831253029 0.296296296,1.88135013 L0.296296296,24.1923531 C0.308673237,25.2429562 1.16973768,26.0849483 2.22033124,26.0739244 L24.4386892,26.0739244 C25.4913612,26.0869736 26.3557976,25.24503 26.3703704,24.1923531 L26.3703704,1.87974036 C26.3553598,0.827568791 25.4908533,-0.0135424052 24.4386892,0.000165191249" id="Path_2520"></path>
                    </g>
                </g>
            </g>
        </g>
    </g>
</svg>